<svg width="24" height="25" viewBox="0 0 24 25" fill="none" xmlns="http://www.w3.org/2000/svg">
<g clip-path="url(#clip0_102_277)">
<path d="M0.019043 5.6329C0.019043 4.90494 0.609167 4.31482 1.33712 4.31482H3.09456C3.82251 4.31482 4.41264 4.90494 4.41264 5.6329C4.41264 6.36085 3.82251 6.95098 3.09456 6.95098H1.33712C0.609167 6.95098 0.019043 6.36085 0.019043 5.6329Z" fill="white"/>
<path d="M0.019043 12.6628C0.019043 11.9348 0.609167 11.3447 1.33712 11.3447H3.09456C3.82251 11.3447 4.41264 11.9348 4.41264 12.6628C4.41264 13.3907 3.82251 13.9808 3.09456 13.9808H1.33712C0.609167 13.9808 0.019043 13.3907 0.019043 12.6628Z" fill="white"/>
<path d="M0.019043 19.6924C0.019043 18.9644 0.609167 18.3743 1.33712 18.3743H3.09456C3.82251 18.3743 4.41264 18.9644 4.41264 19.6924C4.41264 20.4203 3.82251 21.0105 3.09456 21.0105H1.33712C0.609167 21.0105 0.019043 20.4203 0.019043 19.6924Z" fill="white"/>
<path fill-rule="evenodd" clip-rule="evenodd" d="M2.65527 4.31498V6.95113H3.09466C3.82261 6.95113 4.41274 6.36101 4.41274 5.63306C4.41274 4.9051 3.82261 4.31498 3.09466 4.31498H2.65527ZM3.09466 2.55754H3.09349C3.68239 1.50872 4.80532 0.800049 6.09377 0.800049H20.4134C22.3125 0.800049 23.8519 2.33952 23.8519 4.23855V21.0869C23.8519 22.9859 22.3125 24.5254 20.4134 24.5254H6.09377C4.80535 24.5254 3.68244 23.8168 3.09353 22.768H3.09464C4.7932 22.768 6.17016 21.391 6.17016 19.6925C6.17016 17.9939 4.7932 16.617 3.09464 16.617H2.65527V15.7383H3.09464C4.7932 15.7383 6.17016 14.3614 6.17016 12.6628C6.17016 10.9643 4.7932 9.58736 3.09464 9.58736H2.65527V8.70857H3.09466C4.79322 8.70857 6.17017 7.33162 6.17017 5.63306C6.17017 3.9345 4.79322 2.55754 3.09466 2.55754ZM3.09464 21.0105H2.65527V18.3744H3.09464C3.8226 18.3744 4.41272 18.9645 4.41272 19.6925C4.41272 20.4204 3.8226 21.0105 3.09464 21.0105ZM3.09464 13.9809H2.65527V11.3448H3.09464C3.8226 11.3448 4.41272 11.9349 4.41272 12.6628C4.41272 13.3908 3.8226 13.9809 3.09464 13.9809ZM9.90473 4.75428C9.2981 4.75428 8.80633 5.24605 8.80633 5.85268C8.80633 6.45931 9.2981 6.95108 9.90473 6.95108H19.1313C19.7379 6.95108 20.2297 6.45931 20.2297 5.85268C20.2297 5.24605 19.7379 4.75428 19.1313 4.75428H9.90473ZM8.80633 11.1249C8.80633 10.5184 9.2981 10.0266 9.90473 10.0266H19.1313C19.7379 10.0266 20.2297 10.5184 20.2297 11.1249C20.2297 11.7316 19.7379 12.2233 19.1313 12.2233H9.90473C9.2981 12.2233 8.80633 11.7316 8.80633 11.1249ZM9.90473 15.2989C9.2981 15.2989 8.80633 15.7906 8.80633 16.3973C8.80633 17.0039 9.2981 17.4957 9.90473 17.4957H16.4951C17.1017 17.4957 17.5935 17.0039 17.5935 16.3973C17.5935 15.7906 17.1017 15.2989 16.4951 15.2989H9.90473Z" fill="white"/>
</g>
<defs>
<clipPath id="clip0_102_277">
<rect width="24" height="24" fill="white" transform="translate(0 0.800049)"/>
</clipPath>
</defs>
</svg>
