<svg width="64" height="79" viewBox="0 0 64 79" fill="none" xmlns="http://www.w3.org/2000/svg">
<path d="M7.111 0.518066C3.1836 0.518066 0 3.71801 0 7.62906V11.1846V25.4065V32.5175V36.073V46.7395V50.295V68.0725V71.628C0 75.5391 3.1836 78.739 7.111 78.739H14.222V75.1835H8.88875C5.94337 75.1835 3.5555 72.6947 3.5555 69.8503C3.5555 66.6503 5.94337 64.517 8.88875 64.517H53.3325H56.888C60.8168 64.517 63.999 61.3171 63.999 57.406V53.8505V36.073V21.8511V11.1846V7.62906C63.999 3.71801 60.8168 0.518066 56.888 0.518066H42.666H7.111Z" fill="#16A085"/>
</svg>
