<svg width="144" height="105" viewBox="0 0 144 105" fill="none" xmlns="http://www.w3.org/2000/svg">
<path d="M9.03964 61.6753C8.44285 66.3941 14.7091 70.7168 19.4833 68.1681C21.2737 65.3904 26.9429 63.3542 29.0317 67.0234C31.4188 70.911 28.1366 76.1382 31.7173 79.5818C34.9996 82.346 39.7737 80.8606 43.9512 81.1553C51.7094 81.2151 59.4677 81.3726 67.2258 81.0314C71.1049 80.1619 72 76.1159 72 73.0549C72 70.3673 71.7016 67.2385 69.0161 65.6394C65.4354 63.5512 63.0484 68.102 59.7661 68.9425C54.9918 70.4232 50.5159 65.9975 50.8143 61.7356C50.8143 57.5954 55.2902 53.4723 59.7661 54.8853C62.75 56.3946 66.032 60.3978 69.6127 57.9425C72.5966 55.1772 71.7017 50.7319 71.7017 47.1542C70.8065 43.3864 66.032 41.7779 62.4513 42.7722C59.169 43.0173 54.9917 42.1387 54.0966 38.7978C53.7982 35.0686 59.4676 33.2453 58.5724 29.3151C57.9756 24.5943 51.7093 21.8566 47.2334 24.0793C43.9511 25.4288 41.2658 29.4776 43.6529 32.5733C45.7416 34.84 49.3222 38.5142 45.7415 41.3262C41.8624 44.5266 35.5963 40.7836 31.7173 44.2512C27.8382 47.8179 32.0157 53.5054 28.435 57.2016C26.0479 59.8762 22.4671 57.948 20.0799 56.1081C17.096 52.8251 10.8299 55.0836 9.33795 58.923C9.03956 59.8016 9.03964 60.7493 9.03964 61.6753Z" fill="#16A085"/>
<path d="M8.03916 61.6751C7.44993 66.3942 13.6369 70.7167 18.0561 68.1682C20.1184 65.3906 25.4212 63.3541 27.7781 67.0236C30.135 70.9109 26.5997 76.1382 30.4297 79.5821C33.6705 82.346 38.3842 80.8606 42.5088 81.1553C50.1687 81.2153 57.8288 81.3726 65.4888 81.0314C69.3187 80.1618 69.908 76.1161 69.908 73.0551C70.2026 70.3672 69.9079 67.2387 67.2564 65.6396C63.4264 63.5513 61.0696 68.1019 58.1234 68.9427C53.4096 70.4231 48.6959 65.9974 48.9905 61.7357C48.9905 57.5956 53.7042 53.4725 58.1234 54.8826C61.0696 56.3947 64.0156 60.3977 67.5509 57.9426C70.7917 55.1773 69.9081 50.732 69.6134 47.1543C68.7296 43.3865 64.3101 41.778 60.4801 42.7723C57.534 43.0174 53.1149 42.1388 52.5257 38.7979C52.2311 35.0687 57.8288 33.2454 56.9449 29.3151C56.3557 24.5943 50.1687 21.8566 45.7495 24.0793C42.5087 25.4289 39.8574 29.4776 41.9197 32.5733C44.2766 34.8401 47.8118 38.5142 44.2764 41.3263C40.1518 44.5267 34.2598 40.7837 30.1352 44.2513C26.3052 47.818 30.4298 53.5055 27.189 57.2017C24.8321 59.8761 21.002 57.9481 18.9397 56.1083C15.699 52.8252 9.80677 55.0837 8.3337 58.9231C8.03909 59.8014 8.03916 60.7494 8.03916 61.6751Z" fill="#1ABC9C"/>
<path d="M34.3938 67.2949H31.0983L38.5344 52.7495H42.4975L45.0969 67.2949H41.8014L40.033 56.0733H39.9193L34.3938 67.2949ZM35.1466 61.5776H42.9307L42.5188 63.9782H34.7347L35.1466 61.5776Z" fill="white"/>
<path d="M115.366 67.2578C120.328 67.8167 124.875 61.9483 122.194 57.4772C119.273 55.8005 117.131 50.4912 120.99 48.5351C125.079 46.2995 130.577 49.3734 134.198 46.02C137.105 42.9461 135.543 38.4751 135.853 34.5628C135.916 27.2973 136.082 20.0316 135.723 12.766C134.808 9.13319 130.553 8.29492 127.334 8.29492C124.507 8.29492 121.217 8.57437 119.535 11.0894C117.338 14.4427 122.125 16.6782 123.009 19.7521C124.566 24.2232 119.911 28.4149 115.429 28.1355C111.075 28.1355 106.738 23.9438 108.224 19.7521C109.812 16.9577 114.022 13.884 111.44 10.5306C108.531 7.73617 103.856 8.5743 100.093 8.5743C96.1307 9.41264 94.439 13.884 95.4847 17.2374C95.7425 20.3113 94.8185 24.2233 91.3048 25.0616C87.3827 25.3411 85.4651 20.0316 81.3315 20.87C76.3666 21.4289 73.4873 27.2973 75.8249 31.489C77.2443 34.5629 81.5024 37.0778 84.7583 34.8422C87.1423 32.8861 91.0064 29.5329 93.964 32.8862C97.3299 36.519 93.3933 42.3872 97.0402 46.02C100.791 49.6528 106.773 45.7405 110.66 49.0939C113.473 51.3294 111.445 54.6829 109.51 56.9185C106.058 59.7129 108.433 65.5812 112.471 66.9784C113.395 67.2579 114.392 67.2578 115.366 67.2578Z" fill="#F39C12"/>
<path d="M112.365 67.2577C117.329 67.8184 121.875 61.9308 119.194 57.7254C116.273 55.7629 114.131 50.7167 117.99 48.4738C122.079 46.2309 127.577 49.5952 131.199 45.9505C134.105 42.8666 132.543 38.3809 132.853 34.4559C132.916 27.1666 133.082 19.8772 132.723 12.5879C131.808 8.94321 127.553 8.38249 124.334 8.38249C121.507 8.10213 118.217 8.38256 116.535 10.9058C114.339 14.5504 119.125 16.7932 120.009 19.5968C121.566 24.0825 116.911 28.5682 112.429 28.2878C108.075 28.2878 103.738 23.8022 105.222 19.5968C106.812 16.7932 111.022 13.9898 108.44 10.6255C105.532 7.54155 100.856 8.38242 97.0934 8.66278C93.1308 9.50386 91.4391 13.7095 92.4848 17.3542C92.7426 20.1577 91.8186 24.363 88.3049 24.9237C84.3827 25.204 82.4651 19.8772 78.3315 20.7183C73.3666 21.279 70.4873 27.1667 72.8249 31.372C74.2443 34.456 78.5025 36.979 81.7583 35.0165C84.1423 32.7736 88.0065 29.4095 90.964 32.7738C94.33 36.6988 90.3934 42.3058 94.0403 46.2308C97.7915 49.8755 103.773 45.9505 107.661 49.0344C110.473 51.2773 108.446 54.922 106.511 56.8845C103.058 59.9685 105.433 65.5756 109.471 66.9774C110.395 67.2577 111.392 67.2577 112.365 67.2577Z" fill="#FFC800"/>
<path d="M106.744 45.2949L109.159 30.7495H114.982C116.052 30.7495 116.919 30.9081 117.582 31.2253C118.249 31.5426 118.716 31.9829 118.981 32.5463C119.246 33.1051 119.317 33.749 119.194 34.4782C119.095 35.0463 118.893 35.5435 118.59 35.9696C118.292 36.3958 117.923 36.7462 117.482 37.0208C117.042 37.2954 116.564 37.4895 116.048 37.6032L116.019 37.7452C116.569 37.7689 117.063 37.9251 117.504 38.214C117.944 38.498 118.273 38.9005 118.491 39.4213C118.709 39.9422 118.758 40.5601 118.64 41.275C118.512 42.0468 118.207 42.7357 117.724 43.3418C117.241 43.9431 116.597 44.419 115.792 44.7694C114.992 45.1197 114.047 45.2949 112.958 45.2949H106.744ZM110.245 42.7807H112.752C113.605 42.7807 114.256 42.615 114.705 42.2836C115.155 41.9521 115.425 41.5141 115.515 40.9696C115.577 40.5672 115.536 40.2121 115.394 39.9043C115.257 39.5965 115.023 39.3551 114.691 39.1799C114.365 39.0047 113.95 38.9171 113.448 38.9171H110.877L110.245 42.7807ZM111.232 36.8361H113.512C113.929 36.8361 114.315 36.7627 114.67 36.6159C115.03 36.4644 115.326 36.2514 115.558 35.9767C115.794 35.6974 115.944 35.3683 116.005 34.9895C116.09 34.4592 115.972 34.0355 115.65 33.7182C115.333 33.3962 114.836 33.2353 114.159 33.2353H111.829L111.232 36.8361Z" fill="white"/>
</svg>
