<svg width="70" height="74" viewBox="0 0 70 74" fill="none" xmlns="http://www.w3.org/2000/svg">
<path d="M54.092 38.7549C55.8484 38.7549 57.2739 40.0276 57.2739 41.9368V48.3005V61.028V67.3917C57.2739 68.9826 55.8484 70.5736 54.092 70.5736H50.9102V64.2098V45.1186V38.7549H54.092Z" fill="#F39C12"/>
<path d="M54.092 70.5735C55.8484 70.5735 57.2739 68.9826 57.2739 67.3917V61.0279V54.6642H50.9102V64.2098V70.5735H54.092Z" fill="#E67E22"/>
<path d="M15.9101 38.7549C14.1528 38.7549 12.7283 40.0276 12.7283 41.9368V48.3005V61.028V67.3917C12.7283 68.9826 14.1528 70.5736 15.9101 70.5736H19.092V64.2098V45.1186V38.7549H15.9101Z" fill="#F39C12"/>
<path d="M3.18187 26.0277V32.7096C1.31602 33.3459 0 34.9369 0 37.1642C0 39.7097 2.13694 41.937 4.7728 41.937H4.97167L12.7275 55.3007V46.7099L8.75014 39.7095C9.26465 39.0731 9.54561 38.1188 9.54561 37.1642C9.54561 34.9369 8.22958 33.3459 6.36374 32.7096V26.0277H3.18187Z" fill="#2C3E50"/>
<path d="M19.0906 35.573V41.9367V67.3917V73.7554H22.2724H23.8634C26.4992 73.7554 28.6362 71.5281 28.6362 68.9826V62.6189V61.0279V54.6642V48.3005V46.7095V40.3458C28.6362 37.4821 26.4992 35.573 23.8634 35.573H22.2724H19.0906Z" fill="#34495E"/>
<path d="M19.0906 73.7554V67.3917V54.6642H28.6362V61.0279V62.6189V68.9826C28.6362 71.5281 26.4992 73.7554 23.8634 73.7554H22.2724H19.0906Z" fill="#2C3E50"/>
<path d="M15.9092 35.573H22.2729V73.7554H15.9092V35.573Z" fill="#F1C40F"/>
<path d="M31.8182 0.572417C19.2861 0.25423 7.02607 9.79991 1.19275 24.1183C0.0301001 28.8911 5.94328 31.1182 7.25803 26.6636C12.2405 15.527 21.9898 8.52709 31.8182 8.52709H38.182C48.0107 8.52709 57.76 15.527 62.7428 26.6636C64.0569 31.1182 69.9688 28.8911 68.8074 24.1183C62.9751 9.79991 50.7153 0.25423 38.182 0.572417H31.8182Z" fill="#34495E"/>
<path d="M50.909 35.573V41.9367V67.3917V73.7554H47.7271H46.1362C43.5016 73.7554 41.3634 71.5281 41.3634 68.9826V62.6189V61.0279V54.6642V48.3005V46.7095V40.3458C41.3634 37.4821 43.5016 35.573 46.1362 35.573H47.7271H50.909Z" fill="#34495E"/>
<path d="M50.909 73.7554V67.3917V54.6642H41.3634V61.0279V62.6189V68.9826C41.3634 71.5281 43.5016 73.7554 46.1362 73.7554H47.7271H50.909Z" fill="#2C3E50"/>
<path d="M54.0918 35.573H47.7281V73.7554H54.0918V35.573Z" fill="#F1C40F"/>
<path d="M31.8196 5.34485C19.7154 5.34485 7.94122 14.2541 1.89026 27.6179C3.34724 29.527 6.35538 29.527 7.25934 26.3451C12.2418 15.5267 21.9911 8.52672 31.8196 8.52672H38.1833C48.0121 8.52672 57.7613 15.5267 62.7441 26.3451C63.6478 29.527 66.6547 29.527 68.112 27.6179C62.0632 14.2541 50.2871 5.34485 38.1833 5.34485H31.8196Z" fill="#2C3E50"/>
<path d="M15.9101 70.5735C14.1528 70.5735 12.7283 68.9826 12.7283 67.3917V61.0279V54.6642H19.092V64.2098V70.5735H15.9101Z" fill="#E67E22"/>
<path d="M15.9092 54.6642H22.2729V73.7554H15.9092V54.6642Z" fill="#F39C12"/>
<path d="M47.7285 54.6642H54.0923V73.7554H47.7285V54.6642Z" fill="#F39C12"/>
<path d="M66.8182 26.0277V32.7096C68.6828 33.3459 70.0001 34.9369 70.0001 37.1642C70.0001 39.7097 67.8618 41.937 65.2273 41.937H65.03L57.2726 55.3007V46.7099L61.2499 39.7095C60.7345 39.0731 60.4545 38.1188 60.4545 37.1642C60.4545 34.9369 61.7717 33.3459 63.6363 32.7096V26.0277H66.8182Z" fill="#2C3E50"/>
<path d="M6.36327 37.1639C6.36327 37.5859 6.19565 37.9905 5.89729 38.2889C5.59893 38.5873 5.19427 38.7549 4.77233 38.7549C4.35039 38.7549 3.94573 38.5873 3.64737 38.2889C3.34901 37.9905 3.1814 37.5859 3.1814 37.1639C3.1814 36.742 3.34901 36.3373 3.64737 36.039C3.94573 35.7406 4.35039 35.573 4.77233 35.573C5.19427 35.573 5.59893 35.7406 5.89729 36.039C6.19565 36.3373 6.36327 36.742 6.36327 37.1639Z" fill="#7F8C8D"/>
<path d="M66.8208 37.1644C66.8208 37.5864 66.6532 37.991 66.3548 38.2894C66.0565 38.5877 65.6518 38.7554 65.2299 38.7554C64.8079 38.7554 64.4032 38.5877 64.1049 38.2894C63.8065 37.991 63.6389 37.5864 63.6389 37.1644C63.6389 36.7425 63.8065 36.3378 64.1049 36.0395C64.4032 35.7411 64.8079 35.5735 65.2299 35.5735C65.6518 35.5735 66.0565 35.7411 66.3548 36.0395C66.6532 36.3378 66.8208 36.7425 66.8208 37.1644Z" fill="#7F8C8D"/>
</svg>
