<svg width="90" height="90" viewBox="0 0 90 90" fill="none" xmlns="http://www.w3.org/2000/svg">
<g clip-path="url(#clip0_64_179)">
<path d="M19.0417 8.37817C14.9454 8.37817 11.625 11.7157 11.625 15.7948V45.4615V60.2948V82.5448C11.625 86.624 14.9454 89.9615 19.0417 89.9615H70.9583C75.056 89.9615 78.375 86.624 78.375 82.5448V60.2948V45.4615V30.6282V15.7948C78.375 11.7157 75.056 8.37817 70.9583 8.37817H56.125H19.0417Z" fill="#BDC3C7"/>
<path d="M22.75 0.961548C20.7018 0.961548 19.0416 2.44488 19.0416 4.66988V15.7949C19.0416 17.6491 20.7018 19.5032 22.75 19.5032C24.7981 19.5032 26.4583 17.6491 26.4583 15.7949V4.66988C26.4583 2.44488 24.7981 0.961548 22.75 0.961548ZM37.5833 0.961548C35.5352 0.961548 33.875 2.44488 33.875 4.66988V15.7949C33.875 17.6491 35.5352 19.5032 37.5833 19.5032C39.6303 19.5032 41.2916 17.6491 41.2916 15.7949V4.66988C41.2916 2.44488 39.6303 0.961548 37.5833 0.961548ZM52.4166 0.961548C50.3696 0.961548 48.7083 2.44488 48.7083 4.66988V15.7949C48.7083 17.6491 50.3696 19.5032 52.4166 19.5032C54.4636 19.5032 56.125 17.6491 56.125 15.7949V4.66988C56.125 2.44488 54.4636 0.961548 52.4166 0.961548ZM67.25 0.961548C65.2029 0.961548 63.5416 2.44488 63.5416 4.66988V15.7949C63.5416 17.6491 65.2029 19.5032 67.25 19.5032C69.2969 19.5032 70.9583 17.6491 70.9583 15.7949V4.66988C70.9583 2.44488 69.2969 0.961548 67.25 0.961548Z" fill="#95A5A6"/>
<path d="M22.75 56.5865H67.25V60.2949H22.75V56.5865Z" fill="#95A5A6"/>
<path d="M22.75 45.4615H67.25V49.1699H22.75V45.4615Z" fill="#95A5A6"/>
<path d="M22.75 34.3365H67.25V38.0449H22.75V34.3365Z" fill="#95A5A6"/>
<path d="M22.75 67.7115H37.5833V71.4199H22.75V67.7115Z" fill="#95A5A6"/>
<path d="M19.0416 15.7949C19.0416 17.6491 20.7018 19.5033 22.75 19.5033C24.7981 19.5033 26.4583 17.6491 26.4583 15.7949H19.0416ZM33.875 15.7949C33.875 17.6491 35.5352 19.5033 37.5833 19.5033C39.6303 19.5033 41.2916 17.6491 41.2916 15.7949H33.875ZM48.7083 15.7949C48.7083 17.6491 50.3696 19.5033 52.4166 19.5033C54.4636 19.5033 56.125 17.6491 56.125 15.7949H48.7083ZM63.5416 15.7949C63.5416 17.6491 65.2029 19.5033 67.25 19.5033C69.2969 19.5033 70.9583 17.6491 70.9583 15.7949H63.5416Z" fill="#7F8C8D"/>
<path d="M11.625 78.8365V82.5449C11.625 86.624 14.9454 89.9615 19.0417 89.9615H70.9583C75.056 89.9615 78.375 86.624 78.375 82.5449V78.8365C78.375 82.9157 75.056 86.2532 70.9583 86.2532H19.0417C14.9454 86.2532 11.625 82.9157 11.625 78.8365Z" fill="#95A5A6"/>
<path d="M71.5438 26.7944L41.913 56.4253L40.0774 58.2608L37.4552 60.883V71.3718H47.944L50.5662 68.7496L52.4018 66.9141L82.0326 37.2832L71.5438 26.7944Z" fill="#ECF0F1"/>
<path d="M76.7882 32.0388L37.4552 71.3718H47.944L50.5662 68.7496L52.4018 66.914L82.0326 37.2832L76.7882 32.0388Z" fill="#BDC3C7"/>
<path d="M68.9216 29.4166L79.4104 39.9054L50.5662 68.7496L40.0774 58.2608L68.9216 29.4166Z" fill="#E67E22"/>
<path d="M84.6548 24.1723C81.7573 21.2747 77.0504 21.2878 74.166 24.1723L71.5438 26.7945L82.0326 37.2833L84.6548 34.6611C87.5392 31.7766 87.5523 27.0698 84.6548 24.1723Z" fill="#C0392B"/>
<path d="M37.4396 64.0139L37.4552 71.3719L44.8132 71.3875L41.1264 67.7007L37.4396 64.0139Z" fill="#34495E"/>
<path d="M41.1263 67.7007L37.4552 71.3718L44.8132 71.3875L41.1263 67.7007Z" fill="#2C3E50"/>
<path d="M84.6548 24.1723C81.7573 21.2747 77.0504 21.2878 74.166 24.1723L71.5438 26.7945L76.7882 32.0389L84.6548 24.1723Z" fill="#E74C3C"/>
<path d="M74.166 34.661L79.4104 39.9054L50.5662 68.7496L45.3218 63.5052L74.166 34.661Z" fill="#D35400"/>
</g>
<defs>
<clipPath id="clip0_64_179">
<rect width="89" height="89" fill="white" transform="translate(0.5 0.961548)"/>
</clipPath>
</defs>
</svg>
