<svg width="72" height="72" viewBox="0 0 72 72" fill="none" xmlns="http://www.w3.org/2000/svg">
<path d="M33.975 2.36248C20.925 3.14998 14.0625 10.575 13.5 23.9625H26.6625C26.775 19.35 29.475 15.8625 34.2 15.3C38.925 14.85 43.425 15.975 44.775 19.125C46.2375 22.6125 42.975 26.6625 41.4 28.35C38.475 31.5 33.75 33.8625 31.275 37.2375C28.9125 40.6125 28.4625 45 28.2375 50.4H39.825C39.9375 46.9125 40.1625 43.65 41.7375 41.5125C44.325 38.025 48.15 36.45 51.3 33.6375C54.3375 31.05 57.6 27.9 58.05 22.95C59.9625 8.43748 48.0375 1.46248 33.975 2.36248Z" fill="#FF5A79"/>
<path d="M34.3125 69.75C38.3511 69.75 41.625 66.5264 41.625 62.55C41.625 58.5735 38.3511 55.35 34.3125 55.35C30.2739 55.35 27 58.5735 27 62.55C27 66.5264 30.2739 69.75 34.3125 69.75Z" fill="#FF5A79"/>
</svg>
