<svg width="64" height="86" viewBox="0 0 64 86" fill="none" xmlns="http://www.w3.org/2000/svg">
<path d="M0 25.4071V32.5181V36.0736V46.7401V50.2956V68.0731V71.6286C0 75.5396 3.1836 78.7396 7.111 78.7396H56.888C60.8168 78.7396 63.999 75.5396 63.999 71.6286V68.0731V50.2956V36.0736V25.4071H0Z" fill="#16A085"/>
<path d="M0 21.8517V28.9627V32.5182V43.1847V46.7402V64.5177V68.0732C0 71.9842 3.1836 75.1842 7.111 75.1842H56.888C60.8168 75.1842 63.999 71.9842 63.999 68.0732V64.5177V46.7402V32.5182V21.8517H0Z" fill="#ECF0F1"/>
<path d="M0 18.2966V25.4076V28.9631V39.6296V43.1851V60.9626V64.5181C0 68.4291 3.1836 71.6291 7.111 71.6291H56.888C60.8168 71.6291 63.999 68.4291 63.999 64.5181V60.9626V43.1851V28.9631V18.2966H0Z" fill="#BDC3C7"/>
<path d="M0 14.7391V21.8501V25.4056V36.0721V39.6276V57.4051V60.9606C0 64.8717 3.1836 68.0716 7.111 68.0716H56.888C60.8168 68.0716 63.999 64.8717 63.999 60.9606V57.4051V39.6276V25.4056V14.7391H0Z" fill="#ECF0F1"/>
<path d="M7.111 0.518066C3.1836 0.518066 0 3.71801 0 7.62906V11.1846V25.4065V32.5175V36.073V46.7395V50.295V68.0725V71.628C0 75.5391 3.1836 78.739 7.111 78.739H14.222V75.1835H8.88875C5.94337 75.1835 3.5555 72.6947 3.5555 69.8503C3.5555 66.6503 5.94337 64.517 8.88875 64.517H53.3325H56.888C60.8168 64.517 63.999 61.3171 63.999 57.406V53.8505V36.073V21.8511V11.1846V7.62906C63.999 3.71801 60.8168 0.518066 56.888 0.518066H42.666H7.111Z" fill="#16A085"/>
<path d="M17.7786 0.518066V64.5171H21.3341H53.3336H56.8891C60.8179 64.5171 64.0001 61.3171 64.0001 57.4061V53.8506V36.0731V21.8511V11.1846V7.62907C64.0001 3.71802 60.8179 0.518066 56.8891 0.518066H42.6671H21.3341H17.7786Z" fill="#1ABC9C"/>
<path d="M14.2211 71.6268V78.7378V85.8488L23.1098 78.7378L31.9986 85.8488V78.7378V71.6268H14.2211Z" fill="#E74C3C"/>
<path d="M14.2211 68.0717H31.9986V71.6272H14.2211V68.0717Z" fill="#C0392B"/>
</svg>
