<svg width="200" height="229" viewBox="0 0 200 229" fill="none" xmlns="http://www.w3.org/2000/svg">
<path d="M200 160.724V10.7236C200 4.78606 195.223 0.00927734 189.286 0.00927734H42.8571C19.1964 0.00927734 0 19.2057 0 42.8664V185.724C0 209.384 19.1964 228.581 42.8571 228.581H189.286C195.223 228.581 200 223.804 200 217.866V210.724C200 207.375 198.438 204.34 196.027 202.375C194.152 195.5 194.152 175.902 196.027 169.027C198.438 167.107 200 164.072 200 160.724ZM57.1429 59.8307C57.1429 58.3575 58.3482 57.1521 59.8214 57.1521H154.464C155.938 57.1521 157.143 58.3575 157.143 59.8307V68.7593C157.143 70.2325 155.938 71.4379 154.464 71.4379H59.8214C58.3482 71.4379 57.1429 70.2325 57.1429 68.7593V59.8307ZM57.1429 88.4021C57.1429 86.9289 58.3482 85.7236 59.8214 85.7236H154.464C155.938 85.7236 157.143 86.9289 157.143 88.4021V97.3307C157.143 98.8039 155.938 100.009 154.464 100.009H59.8214C58.3482 100.009 57.1429 98.8039 57.1429 97.3307V88.4021ZM170.268 200.009H42.8571C34.9554 200.009 28.5714 193.625 28.5714 185.724C28.5714 177.866 35 171.438 42.8571 171.438H170.268C169.42 179.072 169.42 192.375 170.268 200.009Z" fill="#4A4A4A"/>
</svg>
