<svg width="72" height="72" viewBox="0 0 72 72" fill="none" xmlns="http://www.w3.org/2000/svg">
<path d="M34.5 7.5H37.5V61.5H34.5V7.5Z" fill="#37474F"/>
<path d="M38.7255 49.158L40.8465 51.279L25.7865 66.339L23.6655 64.218L38.7255 49.158Z" fill="#37474F"/>
<path d="M48.3885 64.236L46.2675 66.357L31.2075 51.297L33.3285 49.176L48.3885 64.236Z" fill="#37474F"/>
<path d="M6 12H66V54H6V12Z" fill="#CFD8DC"/>
<path d="M4.5 10.5H67.5V16.5H4.5V10.5ZM4.5 52.5H67.5V55.5H4.5V52.5Z" fill="#607D8B"/>
<path d="M47.25 67.5C48.4926 67.5 49.5 66.4926 49.5 65.25C49.5 64.0074 48.4926 63 47.25 63C46.0074 63 45 64.0074 45 65.25C45 66.4926 46.0074 67.5 47.25 67.5Z" fill="#607D8B"/>
<path d="M24.75 67.5C25.9926 67.5 27 66.4926 27 65.25C27 64.0074 25.9926 63 24.75 63C23.5074 63 22.5 64.0074 22.5 65.25C22.5 66.4926 23.5074 67.5 24.75 67.5Z" fill="#607D8B"/>
<path d="M47.85 28.35L39 37.35L30 28.35L17.85 40.35L21.15 43.65L30 34.65L39 43.65L51.15 31.65L47.85 28.35Z" fill="#C51162"/>
<path d="M54 36L43.5 25.5H54V36Z" fill="#C51162"/>
</svg>
