<svg width="72" height="61" viewBox="0 0 72 61" fill="none" xmlns="http://www.w3.org/2000/svg">
<path d="M18 0.25C10.575 0.25 4.5 6.325 4.5 13.75C4.5 18.25 6.75 22.3 10.125 24.55C4.05 27.7 0 33.775 0 40.75H4.5C4.5 33.325 10.575 27.25 18 27.25C25.425 27.25 31.5 33.325 31.5 40.75H36C36 33.55 41.85 27.475 49.05 27.25H49.5C55.125 27.25 59.85 23.875 61.875 19.15C61.875 19.15 61.875 18.925 62.1 18.925C62.325 18.7 62.325 18.25 62.325 18.025C62.325 17.8 62.325 17.8 62.55 17.575C62.55 17.35 62.775 16.9 62.775 16.675C62.775 16.45 62.775 16.225 63 16C63 15.775 63 15.55 63.225 15.325V13.975C63.225 6.55 57.15 0.475 49.725 0.475C42.3 0.475 36.225 6.55 36.225 13.975C36.225 18.475 38.475 22.525 41.85 24.775C38.475 26.35 35.775 29.05 33.975 32.2C32.175 29.05 29.475 26.35 26.1 24.775C29.25 22.3 31.5 18.25 31.5 13.75C31.5 6.325 25.425 0.25 18 0.25ZM18 4.75C22.95 4.75 27 8.8 27 13.75C27 18.7 22.95 22.75 18 22.75C13.05 22.75 9 18.7 9 13.75C9 8.8 13.05 4.75 18 4.75ZM49.5 4.75C54.45 4.75 58.5 8.8 58.5 13.75C58.5 18.7 54.45 22.75 49.5 22.75C44.55 22.75 40.5 18.7 40.5 13.75C40.5 8.8 44.55 4.75 49.5 4.75ZM54.225 29.5V34.225C52.875 34.45 51.525 35.125 50.4 35.8L47.025 32.425L43.875 35.575L47.25 38.95C46.35 40.075 45.9 41.425 45.675 43H40.5V47.5H45.225C45.45 48.85 46.125 50.2 46.8 51.55L43.425 54.925L46.575 58.075L49.95 54.7C51.075 55.375 52.425 56.05 53.775 56.275V61H58.275V56.275C59.625 56.05 60.975 55.375 62.1 54.7L65.475 58.075L68.625 54.925L65.25 51.55C66.15 50.425 66.6 49.075 66.825 47.5H72V43H67.275C67.05 41.65 66.375 40.3 65.7 38.95L69.075 35.575L65.925 32.425L62.55 35.8C61.425 35.125 60.075 34.45 58.725 34.225V29.5H54.225ZM56.25 38.5C60.075 38.5 63 41.425 63 45.25C63 49.075 60.075 52 56.25 52C52.425 52 49.5 49.075 49.5 45.25C49.5 41.425 52.425 38.5 56.25 38.5ZM56.25 43C55.9639 43.0035 55.6821 43.0696 55.4242 43.1935C55.1565 43.3208 54.9129 43.4936 54.7042 43.7042C54.4936 43.9129 54.3208 44.1565 54.1935 44.4242C54.0696 44.6821 54.0035 44.9639 54 45.25C54 45.5312 54.0698 45.8125 54.1935 46.0758C54.3173 46.339 54.4927 46.5865 54.7042 46.7958C54.9135 47.0073 55.161 47.1827 55.4242 47.3065C55.6821 47.4304 55.9639 47.4965 56.25 47.5C57.375 47.5 58.5 46.375 58.5 45.25C58.5 44.125 57.375 43 56.25 43Z" fill="#58CC02"/>
</svg>
