<svg width="60" height="77" viewBox="0 0 60 77" fill="none" xmlns="http://www.w3.org/2000/svg">
<path d="M6.66667 3.40613C2.98467 3.40613 0 6.40613 0 10.0728V36.7395V50.0728V70.0728C0 73.7395 2.98467 76.7395 6.66667 76.7395H53.3333C57.0167 76.7395 60 73.7395 60 70.0728V50.0728V36.7395V23.4061L40 3.40613H6.66667Z" fill="#95A5A6"/>
<path d="M6.66667 0.0727539C2.98467 0.0727539 0 3.07275 0 6.73942V33.4061V46.7394V66.7394C0 70.4061 2.98467 73.4061 6.66667 73.4061H53.3333C57.0167 73.4061 60 70.4061 60 66.7394V46.7394V33.4061V20.0728L40 0.0727539H6.66667Z" fill="#BDC3C7"/>
<path d="M35.8371 46.5028H24.4182L22.1357 49.6265L19.5248 53.101C19.0174 53.8381 18.6457 54.5049 18.4102 55.1016C18.2288 55.5929 18.1382 56.0493 18.1382 56.5055C18.1382 56.9969 18.3649 57.4181 18.8179 57.8392C19.2893 58.2604 20.0595 58.5061 21.1289 58.5412V59.8397H10V58.5412C10.9789 58.3657 12.2385 57.9796 12.9996 57.4181C14.0145 56.6108 14.7635 55.6632 16.6668 53.1713L41.2885 16.4952H43.3336V51.3462C43.2798 53.101 43.4223 54.1189 43.4223 54.4699C43.4223 55.8386 43.6692 56.8566 44.1567 57.4532C44.6632 58.0849 45.499 58.4359 46.6577 58.5412L46.6672 59.8397H29.9994V58.5761C31.576 58.4357 33.2095 58.2602 33.4438 58.1198C33.9535 57.8391 34.9253 57.3829 35.3401 56.5055C35.7579 55.593 36.5747 53.8733 36.6665 51.6622V46.5028M36.6665 43.1688V29.8319L26.6659 43.1688H36.6665Z" fill="#34495E"/>
<path d="M60 20.0728L40 0.0727539V13.4061C40 17.0728 42.9833 20.0728 46.6667 20.0728H60Z" fill="#95A5A6"/>
</svg>
