<svg width="72" height="72" viewBox="0 0 72 72" fill="none" xmlns="http://www.w3.org/2000/svg">
<path d="M52.767 11.52C53.5671 10.7202 54.517 10.0858 55.5623 9.65299C56.6076 9.22023 57.728 8.99759 58.8593 8.9978C59.9907 8.99801 61.111 9.22106 62.1561 9.65421C63.2013 10.0874 64.1509 10.7221 64.9508 11.5223C65.7506 12.3224 66.385 13.2723 66.8178 14.3176C67.2505 15.3629 67.4732 16.4832 67.473 17.6146C67.4728 18.746 67.2497 19.8662 66.8166 20.9114C66.3834 21.9565 65.7486 22.9062 64.9485 23.706L53.0685 35.586C51.7402 36.9145 50.1003 37.8891 48.2985 38.421L41.7015 40.365C40.9265 40.593 40.1044 40.6081 39.3216 40.4088C38.5387 40.2095 37.8239 39.8032 37.2522 39.2324C36.6806 38.6617 36.2731 37.9476 36.0725 37.165C35.872 36.3825 35.8858 35.5604 36.1125 34.785L38.0475 28.1835C38.5799 26.376 39.5579 24.7312 40.8915 23.4L52.767 11.52ZM61.767 14.706C61.385 14.3238 60.9315 14.0206 60.4323 13.8138C59.9331 13.6069 59.3981 13.5004 58.8578 13.5004C58.3174 13.5004 57.7824 13.6069 57.2832 13.8138C56.784 14.0206 56.3305 14.3238 55.9485 14.706L44.0685 26.5815C43.2701 27.3811 42.6853 28.3682 42.3675 29.4525L40.4325 36.0495L47.0205 34.1055C48.1005 33.786 49.0905 33.201 49.8825 32.4045L61.7625 20.5245C62.1447 20.1426 62.4479 19.689 62.6548 19.1898C62.8616 18.6907 62.9681 18.1556 62.9681 17.6153C62.9681 17.0749 62.8616 16.5399 62.6548 16.0407C62.4479 15.5415 62.1492 15.088 61.767 14.706ZM44.424 13.5H15.75C12.7663 13.5 9.90483 14.6853 7.79505 16.7951C5.68526 18.9048 4.5 21.7663 4.5 24.75V47.25C4.5 50.2337 5.68526 53.0952 7.79505 55.205C9.90483 57.3148 12.7663 58.5 15.75 58.5H56.25C59.2337 58.5 62.0952 57.3148 64.205 55.205C66.3147 53.0952 67.5 50.2337 67.5 47.25V27.5175L63 32.0175V47.25C63 49.0402 62.2888 50.7571 61.023 52.023C59.7571 53.2889 58.0402 54 56.25 54H15.75C13.9598 54 12.2429 53.2889 10.977 52.023C9.71116 50.7571 9 49.0402 9 47.25V32.724C11.4975 30.6855 14.355 28.836 16.8705 27.9045C18.2655 27.3825 19.377 27.216 20.178 27.3105C20.8845 27.396 21.3705 27.6705 21.753 28.2465C22.32 29.097 22.32 29.7765 21.9555 30.663C21.5145 31.743 20.6055 32.8995 19.377 34.398L19.224 34.5915C18.1305 35.919 16.803 37.539 16.002 39.285C15.0975 41.247 14.7645 43.56 15.9885 46.008C17.8785 49.797 22.1445 50.202 25.506 49.554C29.2133 48.7864 32.6253 46.9789 35.343 44.343C35.5522 44.1338 35.7181 43.8855 35.8314 43.6121C35.9446 43.3388 36.0028 43.0459 36.0028 42.75C36.0028 42.4542 35.9446 42.1612 35.8314 41.8879C35.7181 41.6146 35.5522 41.3662 35.343 41.157C35.1338 40.9478 34.8855 40.7819 34.6121 40.6687C34.3388 40.5554 34.0458 40.4972 33.75 40.4972C33.4542 40.4972 33.1612 40.5554 32.8879 40.6687C32.6145 40.7819 32.3662 40.9478 32.157 41.157C30.231 43.0875 27.297 44.622 24.651 45.135C21.861 45.675 20.493 44.955 20.016 43.992C19.548 43.065 19.5975 42.228 20.088 41.166C20.637 39.969 21.627 38.7585 22.86 37.251L22.905 37.197C24.021 35.838 25.3845 34.1685 26.1225 32.3685C26.9505 30.3435 27.027 28.0485 25.497 25.7535C24.9672 24.9403 24.2615 24.2565 23.432 23.7525C22.6025 23.2486 21.6704 22.9374 20.7045 22.842C18.918 22.6305 17.0415 23.04 15.3045 23.6835C13.194 24.4665 11.0205 25.6995 9 27.0945V24.75C9 23.8636 9.17459 22.9858 9.51381 22.1669C9.85303 21.348 10.3502 20.6038 10.977 19.977C11.6038 19.3502 12.3479 18.853 13.1669 18.5138C13.9858 18.1746 14.8636 18 15.75 18H39.924L44.424 13.5Z" fill="#111111"/>
</svg>
