<svg width="88" height="90" viewBox="0 0 88 90" fill="none" xmlns="http://www.w3.org/2000/svg">
<path d="M29.6968 37.0261H34.1568C34.3845 37.0261 34.6029 36.9347 34.7639 36.7718C34.9249 36.609 35.0154 36.3881 35.0154 36.1578C35.0154 35.9276 34.9249 35.7067 34.7639 35.5439C34.6029 35.381 34.3845 35.2896 34.1568 35.2896H29.6968C29.4691 35.2896 29.2507 35.381 29.0897 35.5439C28.9287 35.7067 28.8382 35.9276 28.8382 36.1578C28.8382 36.3881 28.9287 36.609 29.0897 36.7718C29.2507 36.9347 29.4691 37.0261 29.6968 37.0261Z" fill="#4D4C78"/>
<path d="M42.7637 57.3312C42.9504 57.3304 43.1319 57.2688 43.2811 57.1553C43.4304 57.0419 43.5395 56.8828 43.5922 56.7016C43.796 55.9727 43.9 55.219 43.9012 54.4615C43.9012 49.9854 40.2997 46.3429 35.8739 46.3429H23.7342C22.5126 46.3418 21.3412 45.8507 20.477 44.9775C19.6128 44.1043 19.1262 42.9201 19.1239 41.6845C19.1239 39.1187 21.193 37.0261 23.7342 37.0261H26.6232C26.8509 37.0261 27.0693 36.9347 27.2303 36.7718C27.3913 36.609 27.4817 36.3881 27.4817 36.1578C27.4817 35.9276 27.3913 35.7067 27.2303 35.5439C27.0693 35.381 26.8509 35.2896 26.6232 35.2896H23.7342C20.2443 35.2896 17.4068 38.1593 17.4068 41.6845C17.4068 45.2098 20.2443 48.0795 23.7342 48.0795H35.8739C39.3553 48.0795 42.1842 50.9449 42.1842 54.4615C42.1848 55.0577 42.1024 55.6511 41.9395 56.2241C41.8772 56.4452 41.9041 56.6822 42.0144 56.8832C42.1246 57.0842 42.3092 57.2328 42.5276 57.2964C42.6045 57.3183 42.6838 57.33 42.7637 57.3312Z" fill="#4D4C78"/>
<path d="M26.5846 79.3987H60.0804C60.3081 79.3987 60.5265 79.3073 60.6875 79.1444C60.8485 78.9816 60.939 78.7607 60.939 78.5304C60.939 78.3002 60.8485 78.0793 60.6875 77.9165C60.5265 77.7536 60.3081 77.6621 60.0804 77.6621H26.5846C22.4722 77.6621 19.1239 74.2801 19.1239 70.121C19.1239 65.9619 22.4722 62.5756 26.5846 62.5756H35.874C36.9706 62.5783 38.0559 62.3526 39.0625 61.9127C40.0691 61.4728 40.9754 60.828 41.7249 60.0184C41.8809 59.8503 41.9644 59.6264 41.9572 59.396C41.95 59.1656 41.8525 58.9476 41.6863 58.7898C41.5201 58.6321 41.2987 58.5476 41.0709 58.5549C40.843 58.5622 40.6274 58.6608 40.4715 58.8289C39.8841 59.4671 39.1723 59.9752 38.381 60.3212C37.5897 60.6671 36.7361 60.8434 35.874 60.839H26.5846C24.1855 60.8915 21.9021 61.8922 20.2236 63.6268C18.5452 65.3614 17.6053 67.6919 17.6053 70.1189C17.6053 72.5458 18.5452 74.8763 20.2236 76.6109C21.9021 78.3455 24.1855 79.3462 26.5846 79.3987Z" fill="#4D4C78"/>
<path d="M63.3171 79.3988H67.4639C67.6915 79.3988 67.9099 79.3073 68.0709 79.1445C68.2319 78.9817 68.3224 78.7608 68.3224 78.5305C68.3224 78.3002 68.2319 78.0794 68.0709 77.9166C67.9099 77.7537 67.6915 77.6622 67.4639 77.6622H63.3171C63.0894 77.6622 62.871 77.7537 62.71 77.9166C62.549 78.0794 62.4586 78.3002 62.4586 78.5305C62.4586 78.7608 62.549 78.9817 62.71 79.1445C62.871 79.3073 63.0894 79.3988 63.3171 79.3988Z" fill="#4D4C78"/>
<path d="M48.6919 23.3895L61.4583 71.5624L70.5931 69.0878L57.9297 21.3013L48.7949 23.7759L48.6919 23.3895Z" fill="#67BAEB"/>
<path d="M56.2814 15.067C55.9554 13.8428 55.1627 12.7993 54.0772 12.1653C52.9916 11.5313 51.7018 11.3586 50.4905 11.685C49.8906 11.8472 49.3281 12.1274 48.8353 12.5096C48.3425 12.8918 47.929 13.3685 47.6184 13.9124C47.3079 14.4563 47.1063 15.0568 47.0254 15.6795C46.9444 16.3022 46.9856 16.935 47.1465 17.5416L47.8505 20.2116L56.9854 17.737L56.2814 15.067Z" fill="#DE3226"/>
<path d="M57.9298 21.3013L56.9854 17.7369L57.9298 21.3013Z" fill="#231F20"/>
<path d="M48.6919 23.3895L47.8505 20.2115L48.6919 23.3895Z" fill="#231F20"/>
<path d="M48.795 23.7759L57.9298 21.3013L56.9854 17.7369L47.8506 20.2116L48.692 23.3895L48.795 23.7759Z" fill="#F4C23F"/>
<path d="M61.4583 71.5624L70.5931 69.0878L69.1422 78.5522C69.0091 79.4118 67.9317 79.7026 67.3908 79.0254L61.4583 71.5624Z" fill="#B9B1E0"/>
<path d="M61.4584 71.5625L63.8623 70.9112L51.2032 23.1248L48.795 23.776L48.692 23.3896L61.4584 71.5625Z" fill="#46A1F8"/>
<path d="M56.9854 17.737L50.2587 19.5604L49.5504 16.8904C49.2829 15.8774 49.3518 14.8036 49.7466 13.8341C50.1414 12.8646 50.8401 12.0531 51.7354 11.5244C51.3151 11.5203 50.8963 11.5743 50.4905 11.685C49.8906 11.8472 49.3281 12.1275 48.8353 12.5097C48.3425 12.8919 47.929 13.3685 47.6184 13.9124C47.3079 14.4564 47.1063 15.0568 47.0254 15.6796C46.9444 16.3023 46.9856 16.935 47.1465 17.5417L47.8505 20.2117L56.9854 17.737Z" fill="#B11A31"/>
<path d="M51.2031 23.1248L51.1001 22.7384L50.2587 19.5604L47.8505 20.2116L48.6919 23.3896L48.7949 23.776L51.2031 23.1248Z" fill="#F4A93F"/>
<path d="M69.1422 78.5522L69.271 77.71L63.8622 70.9113L61.4583 71.5625L67.3908 79.0255C67.9317 79.7027 69.0091 79.4118 69.1422 78.5522Z" fill="#B1A9D6"/>
<path d="M55.7921 34.0782C55.8771 33.93 56.0036 33.8106 56.1556 33.735C56.3076 33.6593 56.4783 33.6308 56.6463 33.6531C56.8142 33.6754 56.9719 33.7474 57.0995 33.8602C57.2271 33.9729 57.3188 34.1213 57.3632 34.2866L65.0428 63.2702C65.0933 63.4895 65.0576 63.72 64.9433 63.9132C64.829 64.1064 64.6449 64.2471 64.43 64.3056C64.2151 64.3642 63.986 64.3361 63.7912 64.2271C63.5964 64.1182 63.4511 63.937 63.3858 63.7217L55.7062 34.7381C55.6767 34.6279 55.669 34.5128 55.6838 34.3995C55.6985 34.2862 55.7353 34.177 55.7921 34.0782Z" fill="#4D4C78"/>
<path d="M54.0406 27.4618C54.0965 27.3631 54.1712 27.2766 54.2603 27.2073C54.3495 27.138 54.4514 27.0872 54.5601 27.058C54.6691 27.0285 54.7829 27.0211 54.8948 27.0361C55.0068 27.0511 55.1147 27.0884 55.2124 27.1456C55.3101 27.2029 55.3956 27.2791 55.4642 27.3698C55.5327 27.4606 55.5829 27.5641 55.6118 27.6745L56.4403 30.8004C56.4908 31.0196 56.4551 31.2502 56.3408 31.4433C56.2264 31.6365 56.0424 31.7772 55.8275 31.8358C55.6125 31.8944 55.3835 31.8662 55.1887 31.7573C54.9939 31.6483 54.8485 31.4671 54.7833 31.2519L53.9548 28.1217C53.9255 28.0114 53.918 27.8963 53.9327 27.7831C53.9474 27.6699 53.9841 27.5607 54.0406 27.4618Z" fill="#4D4C78"/>
<path d="M62.4291 46.5635C62.2781 45.9938 62.6115 45.4084 63.1737 45.2561C63.7359 45.1037 64.314 45.4421 64.465 46.0118L67.0111 55.6221C67.1621 56.1919 66.8287 56.7773 66.2665 56.9296C65.7043 57.082 65.1262 56.7436 64.9752 56.1739L62.4291 46.5635Z" fill="#83D0FB"/>
<path d="M60.6683 39.9125C60.5174 39.3428 60.8508 38.7574 61.413 38.6051C61.9752 38.4527 62.5533 38.7911 62.7042 39.3608L63.337 41.749C63.4879 42.3188 63.1545 42.9042 62.5923 43.0565C62.0301 43.2089 61.452 42.8705 61.3011 42.3008L60.6683 39.9125Z" fill="#83D0FB"/>
<path d="M55.3839 19.9716C55.233 19.4019 55.5663 18.8165 56.1285 18.6642C56.6907 18.5118 57.2689 18.8502 57.4198 19.4199L57.552 19.9189C57.703 20.4887 57.3696 21.0741 56.8074 21.2264C56.2452 21.3788 55.6671 21.0404 55.5161 20.4707L55.3839 19.9716Z" fill="#FAD564"/>
<path d="M53.9022 14.8917C53.7513 14.3219 54.0847 13.7366 54.6469 13.5842C55.209 13.4319 55.7872 13.7702 55.9381 14.34L56.5825 16.7722C56.7335 17.3419 56.4001 17.9273 55.8379 18.0797C55.2757 18.232 54.6976 17.8937 54.5466 17.3239L53.9022 14.8917Z" fill="#F44533"/>
</svg>
